<svg width="3404" height="892" xmlns="http://www.w3.org/2000/svg" xmlns:xlink="http://www.w3.org/1999/xlink" xml:space="preserve" overflow="hidden"><g transform="translate(-504 -1389)"><rect x="517" y="1389" width="3391" height="892" fill="#FFFFFF"/><rect x="540.5" y="1751.5" width="546" height="166" stroke="#1C1C1C" stroke-width="3.4375" stroke-linejoin="round" stroke-miterlimit="10" fill="none"/><text fill="#1C1C1C" font-family="Consolas,Consolas_MSFontService,sans-serif" font-weight="400" font-size="110" transform="matrix(1 0 0 1 570.101 1871)">01101000</text><rect x="1391.5" y="1751.5" width="616" height="166" stroke="#1C1C1C" stroke-width="3.4375" stroke-linejoin="round" stroke-miterlimit="10" fill="none"/><text fill="#1C1C1C" font-family="Consolas,Consolas_MSFontService,sans-serif" font-weight="400" font-size="110" transform="matrix(1 0 0 1 1425.95 1871)">01101000</text><text fill="#0066CC" font-family="Consolas,Consolas_MSFontService,sans-serif" font-weight="400" font-size="110" transform="matrix(1 0 0 1 1911.78 1871)">1</text><rect x="2310.5" y="1553.5" width="616" height="167" stroke="#1C1C1C" stroke-width="3.4375" stroke-linejoin="round" stroke-miterlimit="10" fill="none"/><text fill="#1C1C1C" font-family="Consolas,Consolas_MSFontService,sans-serif" font-weight="400" font-size="110" transform="matrix(1 0 0 1 2344.47 1674)">01101000</text><text fill="#0066CC" font-family="Consolas,Consolas_MSFontService,sans-serif" font-weight="400" font-size="110" transform="matrix(1 0 0 1 2830.31 1674)">1</text><rect x="2310.5" y="1946.5" width="616" height="167" stroke="#1C1C1C" stroke-width="3.4375" stroke-linejoin="round" stroke-miterlimit="10" fill="none"/><text fill="#1C1C1C" font-family="Consolas,Consolas_MSFontService,sans-serif" font-weight="400" font-size="110" transform="matrix(1 0 0 1 2344.47 2066)">011010</text><text fill="#F62F00" font-family="Consolas,Consolas_MSFontService,sans-serif" font-weight="400" font-size="110" transform="matrix(1 0 0 1 2708.85 2066)">1</text><text fill="#1C1C1C" font-family="Consolas,Consolas_MSFontService,sans-serif" font-weight="400" font-size="110" transform="matrix(1 0 0 1 2769.58 2066)">0</text><text fill="#0066CC" font-family="Consolas,Consolas_MSFontService,sans-serif" font-weight="400" font-size="110" transform="matrix(1 0 0 1 2830.31 2066)">1</text><path d="M1148 1787 1238.5 1787 1238.5 1740 1329 1834 1238.5 1928 1238.5 1881 1148 1881Z" fill="#0066CC" fill-rule="evenodd"/><path d="M2069 1589.75 2160 1589.75 2160 1543 2251 1636.5 2160 1730 2160 1683.25 2069 1683.25Z" fill="#0066CC" fill-rule="evenodd"/><path d="M2069 1982.75 2160 1982.75 2160 1936 2251 2029.5 2160 2123 2160 2076.25 2069 2076.25Z" fill="#0066CC" fill-rule="evenodd"/><text fill="#1C1C1C" font-family="BIZ UDPGothic,BIZ UDPGothic_MSFontService,sans-serif" font-weight="400" font-size="55" transform="matrix(1 0 0 1 1480.37 2008)">1 </text><text fill="#1C1C1C" font-family="BIZ UDGothic,BIZ UDGothic_MSFontService,sans-serif" font-weight="400" font-size="55" transform="matrix(1 0 0 1 1533.08 2008)">の個数が偶数に</text><text fill="#1C1C1C" font-family="BIZ UDGothic,BIZ UDGothic_MSFontService,sans-serif" font-weight="400" font-size="55" transform="matrix(1 0 0 1 1479.23 2107)">なるように末尾に</text><text fill="#1C1C1C" font-family="BIZ UDGothic,BIZ UDGothic_MSFontService,sans-serif" font-weight="400" font-size="55" transform="matrix(1 0 0 1 1424.23 2206)">パリティビットを追加</text><text fill="#1C1C1C" font-family="BIZ UDGothic,BIZ UDGothic_MSFontService,sans-serif" font-weight="400" font-size="55" transform="matrix(1 0 0 1 2342.76 1510)">そのまま伝わった場合</text><text fill="#1C1C1C" font-family="BIZ UDGothic,BIZ UDGothic_MSFontService,sans-serif" font-weight="400" font-size="55" transform="matrix(1 0 0 1 2370.26 2203)">ノイズが生じた場合</text><rect x="3112" y="1523" width="771" height="261" fill="#E7E6E6"/><text font-family="BIZ UDPGothic,BIZ UDPGothic_MSFontService,sans-serif" font-weight="400" font-size="55" transform="matrix(1 0 0 1 3189.75 1637)">1</text><text font-family="BIZ UDGothic,BIZ UDGothic_MSFontService,sans-serif" font-weight="400" font-size="55" transform="matrix(1 0 0 1 3242.46 1637)">が偶数個だから</text><text font-family="BIZ UDGothic,BIZ UDGothic_MSFontService,sans-serif" font-weight="400" font-size="55" transform="matrix(1 0 0 1 3189.75 1736)">そのまま伝わってそう</text><text font-family="BIZ UDGothic,BIZ UDGothic_MSFontService,sans-serif" font-weight="400" font-size="55" transform="matrix(1 0 0 1 3739.75 1736)">！</text><path d="M3112 1711 2995 1652.5 3112 1594Z" fill="#E7E6E6" fill-rule="evenodd"/><rect x="3112" y="1895" width="771" height="262" fill="#E7E6E6"/><text font-family="BIZ UDPGothic,BIZ UDPGothic_MSFontService,sans-serif" font-weight="400" font-size="55" transform="matrix(1 0 0 1 3189.75 2010)">1</text><text font-family="BIZ UDGothic,BIZ UDGothic_MSFontService,sans-serif" font-weight="400" font-size="55" transform="matrix(1 0 0 1 3242.46 2010)">が奇数個だから</text><text font-family="BIZ UDGothic,BIZ UDGothic_MSFontService,sans-serif" font-weight="400" font-size="55" transform="matrix(1 0 0 1 3189.75 2109)">おかしい</text><text font-family="BIZ UDGothic,BIZ UDGothic_MSFontService,sans-serif" font-weight="400" font-size="55" transform="matrix(1 0 0 1 3409.75 2109)">！</text><text font-family="BIZ UDGothic,BIZ UDGothic_MSFontService,sans-serif" font-weight="400" font-size="55" transform="matrix(1 0 0 1 3483.08 2109)">誤り検出</text><text font-family="BIZ UDGothic,BIZ UDGothic_MSFontService,sans-serif" font-weight="400" font-size="55" transform="matrix(1 0 0 1 3703.08 2109)">！</text><path d="M3112 2084 2995 2025.5 3112 1967Z" fill="#E7E6E6" fill-rule="evenodd"/><path d="M2703.7 1859.5 2719.34 1892.43 2712.89 1896.32 2732.59 1924.54 2726.14 1929.25 2750.5 1976.5 2709.19 1940.29 2717.07 1935.26 2691.4 1912.07 2700.6 1904.9 2673.5 1880.57Z" stroke="#1C1C1C" stroke-width="4.58333" stroke-miterlimit="8" fill="#FFFF00" fill-rule="evenodd"/></g></svg>