<svg width="2956" height="586" xmlns="http://www.w3.org/2000/svg" xmlns:xlink="http://www.w3.org/1999/xlink" xml:space="preserve" overflow="hidden"><defs><clipPath id="clip0"><rect x="722" y="740" width="2956" height="586"/></clipPath></defs><g clip-path="url(#clip0)" transform="translate(-722 -740)"><rect x="722" y="740" width="2956" height="586" fill="#FFFFFF"/><text fill="#FF0066" font-family="Consolas,Consolas_MSFontService,sans-serif" font-weight="400" font-size="128" text-decoration="underline" transform="matrix(1 0 0 1 852.213 961)">http</text><text fill="#1C1C1C" font-family="Consolas,Consolas_MSFontService,sans-serif" font-weight="400" font-size="128" transform="matrix(1 0 0 1 1134.09 961)">://</text><text fill="#FF9900" font-family="Consolas,Consolas_MSFontService,sans-serif" font-weight="400" font-size="128" text-decoration="underline" transform="matrix(1 0 0 1 1345.49 961)">example.com</text><text fill="#0066FF" font-family="Consolas,Consolas_MSFontService,sans-serif" font-weight="400" font-size="128" text-decoration="underline" transform="matrix(1 0 0 1 2138.41 961)">/</text><text fill="#0066FF" font-family="Consolas,Consolas_MSFontService,sans-serif" font-weight="400" font-size="128" text-decoration="underline" transform="matrix(1 0 0 1 2208.88 961)">info</text><text fill="#0066FF" font-family="Consolas,Consolas_MSFontService,sans-serif" font-weight="400" font-size="128" text-decoration="underline" transform="matrix(1 0 0 1 2490.76 961)">1</text><text fill="#0066FF" font-family="Consolas,Consolas_MSFontService,sans-serif" font-weight="400" font-size="128" text-decoration="underline" transform="matrix(1 0 0 1 2561.22 961)">/internet.html</text><text fill="#1C1C1C" font-family="BIZ UDGothic,BIZ UDGothic_MSFontService,sans-serif" font-weight="400" font-size="73" transform="matrix(1 0 0 1 814.476 1094)">プロトコル</text><text fill="#1C1C1C" font-family="BIZ UDPGothic,BIZ UDPGothic_MSFontService,sans-serif" font-weight="400" font-size="73" transform="matrix(1 0 0 1 1422.4 1094)">Web </text><text fill="#1C1C1C" font-family="BIZ UDGothic,BIZ UDGothic_MSFontService,sans-serif" font-weight="400" font-size="73" transform="matrix(1 0 0 1 1621.2 1094)">サーバの</text><text fill="#1C1C1C" font-family="BIZ UDGothic,BIZ UDGothic_MSFontService,sans-serif" font-weight="400" font-size="73" transform="matrix(1 0 0 1 1914.54 1094)">住所</text><text fill="#1C1C1C" font-family="BIZ UDPGothic,BIZ UDPGothic_MSFontService,sans-serif" font-weight="400" font-size="73" transform="matrix(1 0 0 1 1522.39 1182)">(</text><text fill="#1C1C1C" font-family="BIZ UDGothic,BIZ UDGothic_MSFontService,sans-serif" font-weight="400" font-size="73" transform="matrix(1 0 0 1 1558.48 1182)">ドメイン名</text><text fill="#1C1C1C" font-family="BIZ UDPGothic,BIZ UDPGothic_MSFontService,sans-serif" font-weight="400" font-size="73" transform="matrix(1 0 0 1 1925.15 1182)">)</text><text fill="#1C1C1C" font-family="BIZ UDPGothic,BIZ UDPGothic_MSFontService,sans-serif" font-weight="400" font-size="73" transform="matrix(1 0 0 1 2337.47 1094)">Web </text><text fill="#1C1C1C" font-family="BIZ UDGothic,BIZ UDGothic_MSFontService,sans-serif" font-weight="400" font-size="73" transform="matrix(1 0 0 1 2536.27 1094)">サーバ内のファイルの</text><text fill="#1C1C1C" font-family="BIZ UDGothic,BIZ UDGothic_MSFontService,sans-serif" font-weight="400" font-size="73" transform="matrix(1 0 0 1 3269.61 1094)">場所</text><text fill="#1C1C1C" font-family="BIZ UDPGothic,BIZ UDPGothic_MSFontService,sans-serif" font-weight="400" font-size="73" transform="matrix(1 0 0 1 2767.43 1182)">(</text><text fill="#1C1C1C" font-family="BIZ UDGothic,BIZ UDGothic_MSFontService,sans-serif" font-weight="400" font-size="73" transform="matrix(1 0 0 1 2803.53 1182)">パス</text><text fill="#1C1C1C" font-family="BIZ UDPGothic,BIZ UDPGothic_MSFontService,sans-serif" font-weight="400" font-size="73" transform="matrix(1 0 0 1 2950.19 1182)">)</text></g></svg>