<svg width="80" height="80" viewBox="0 0 80 80" fill="none" xmlns="http://www.w3.org/2000/svg">
<circle cx="40" cy="40" r="38" fill="white" stroke="black" stroke-width="4"/>
<path d="M39.065 30V17.821L34.5224 22.3807L32.5281 20.4034L40.5053 12.4432L48.4656 20.4034L46.5053 22.3807L41.9457 17.821V30H39.065Z" fill="black"/>
<path d="M41.9457 49.5455V61.7244L46.4883 57.1648L48.4826 59.142L40.5053 67.1023L32.5451 59.142L34.5053 57.1648L39.065 61.7244V49.5455H41.9457Z" fill="black"/>
<path d="M60.011 49.9545L51.4201 41.3636L60.011 32.7727L61.9883 34.733L56.7979 39.9233H68.9599V42.804H56.7979L61.9883 47.9858L60.011 49.9545Z" fill="black"/>
<path d="M19.9996 49.9545L18.0224 47.9943L23.2127 42.804H11.0508V39.9233H23.2127L18.0224 34.7415L19.9996 32.7727L28.5906 41.3636L19.9996 49.9545Z" fill="black"/>
</svg>
