<?xml version="1.0" encoding="UTF-8" standalone="no"?>
<svg xmlns:dc="http://purl.org/dc/elements/1.1/" xmlns:cc="http://creativecommons.org/ns#" xmlns:rdf="http://www.w3.org/1999/02/22-rdf-syntax-ns#" xmlns:svg="http://www.w3.org/2000/svg" xmlns="http://www.w3.org/2000/svg" xmlns:sodipodi="http://sodipodi.sourceforge.net/DTD/sodipodi-0.dtd" width="12.56" height="4.4" version="1.0" id="svg">
  <rect width="12.56" height="4.4" fill="black"/>
  <polyline style="fill:none;stroke:white;stroke-width:0.3;stroke-dasharray:none;stroke-opacity:1;stroke-miterlimit:4" id="polyline" points="0.000,0.000 0.010,0.000 0.020,0.000 0.030,0.001 0.040,0.002 0.050,0.002 0.060,0.004 0.070,0.005 0.080,0.006 0.090,0.008 0.100,0.010 0.110,0.012 0.120,0.014 0.130,0.017 0.140,0.020 0.150,0.022 0.160,0.026 0.170,0.029 0.180,0.032 0.190,0.036 0.200,0.040 0.210,0.044 0.220,0.048 0.230,0.053 0.240,0.057 0.250,0.062 0.260,0.067 0.270,0.072 0.280,0.078 0.290,0.084 0.300,0.089 0.310,0.095 0.320,0.102 0.330,0.108 0.340,0.114 0.350,0.121 0.360,0.128 0.370,0.135 0.380,0.143 0.390,0.150 0.400,0.158 0.410,0.166 0.420,0.174 0.430,0.182 0.440,0.190 0.450,0.199 0.460,0.208 0.470,0.217 0.480,0.226 0.490,0.235 0.500,0.245 0.510,0.255 0.520,0.264 0.530,0.274 0.540,0.285 0.550,0.295 0.560,0.305 0.570,0.316 0.580,0.327 0.590,0.338 0.600,0.349 0.610,0.361 0.620,0.372 0.630,0.384 0.640,0.396 0.650,0.408 0.660,0.420 0.670,0.432 0.680,0.445 0.690,0.458 0.700,0.470 0.710,0.483 0.720,0.496 0.730,0.510 0.740,0.523 0.750,0.537 0.760,0.550 0.770,0.564 0.780,0.578 0.790,0.592 0.800,0.607 0.810,0.621 0.820,0.636 0.830,0.650 0.840,0.665 0.850,0.680 0.860,0.695 0.870,0.710 0.880,0.726 0.890,0.741 0.900,0.757 0.910,0.773 0.920,0.788 0.930,0.804 0.940,0.820 0.950,0.837 0.960,0.853 0.970,0.869 0.980,0.886 0.990,0.903 1.000,0.919 1.010,0.936 1.020,0.953 1.030,0.970 1.040,0.988 1.050,1.005 1.060,1.022 1.070,1.040 1.080,1.057 1.090,1.075 1.100,1.093 1.110,1.111 1.120,1.129 1.130,1.147 1.140,1.165 1.150,1.183 1.160,1.201 1.170,1.220 1.180,1.238 1.190,1.257 1.200,1.275 1.210,1.294 1.220,1.313 1.230,1.332 1.240,1.350 1.250,1.369 1.260,1.388 1.270,1.407 1.280,1.427 1.290,1.446 1.300,1.465 1.310,1.484 1.320,1.504 1.330,1.523 1.340,1.542 1.350,1.562 1.360,1.582 1.370,1.601 1.380,1.621 1.390,1.640 1.400,1.660 1.410,1.680 1.420,1.700 1.430,1.719 1.440,1.739 1.450,1.759 1.460,1.779 1.470,1.799 1.480,1.819 1.490,1.839 1.500,1.859 1.510,1.878 1.520,1.898 1.530,1.918 1.540,1.938 1.550,1.958 1.560,1.978 1.570,1.998 1.580,2.018 1.590,2.038 1.600,2.058 1.610,2.078 1.620,2.098 1.630,2.118 1.640,2.138 1.650,2.158 1.660,2.178 1.670,2.198 1.680,2.218 1.690,2.238 1.700,2.258 1.710,2.278 1.720,2.297 1.730,2.317 1.740,2.337 1.750,2.356 1.760,2.376 1.770,2.396 1.780,2.415 1.790,2.435 1.800,2.454 1.810,2.474 1.820,2.493 1.830,2.513 1.840,2.532 1.850,2.551 1.860,2.570 1.870,2.590 1.880,2.609 1.890,2.628 1.900,2.647 1.910,2.665 1.920,2.684 1.930,2.703 1.940,2.722 1.950,2.740 1.960,2.759 1.970,2.777 1.980,2.796 1.990,2.814 2.000,2.832 2.010,2.850 2.020,2.868 2.030,2.886 2.040,2.904 2.050,2.922 2.060,2.940 2.070,2.957 2.080,2.975 2.090,2.992 2.100,3.010 2.110,3.027 2.120,3.044 2.130,3.061 2.140,3.078 2.150,3.095 2.160,3.111 2.170,3.128 2.180,3.144 2.190,3.161 2.200,3.177 2.210,3.193 2.220,3.209 2.230,3.225 2.240,3.241 2.250,3.256 2.260,3.272 2.270,3.287 2.280,3.302 2.290,3.318 2.300,3.333 2.310,3.347 2.320,3.362 2.330,3.377 2.340,3.391 2.350,3.405 2.360,3.420 2.370,3.434 2.380,3.447 2.390,3.461 2.400,3.475 2.410,3.488 2.420,3.502 2.430,3.515 2.440,3.528 2.450,3.540 2.460,3.553 2.470,3.566 2.480,3.578 2.490,3.590 2.500,3.602 2.510,3.614 2.520,3.626 2.530,3.637 2.540,3.649 2.550,3.660 2.560,3.671 2.570,3.682 2.580,3.693 2.590,3.703 2.600,3.714 2.610,3.724 2.620,3.734 2.630,3.744 2.640,3.754 2.650,3.763 2.660,3.773 2.670,3.782 2.680,3.791 2.690,3.800 2.700,3.808 2.710,3.817 2.720,3.825 2.730,3.833 2.740,3.841 2.750,3.849 2.760,3.856 2.770,3.864 2.780,3.871 2.790,3.878 2.800,3.884 2.810,3.891 2.820,3.897 2.830,3.904 2.840,3.910 2.850,3.916 2.860,3.921 2.870,3.927 2.880,3.932 2.890,3.937 2.900,3.942 2.910,3.947 2.920,3.951 2.930,3.955 2.940,3.959 2.950,3.963 2.960,3.967 2.970,3.971 2.980,3.974 2.990,3.977 3.000,3.980 3.010,3.983 3.020,3.985 3.030,3.988 3.040,3.990 3.050,3.992 3.060,3.993 3.070,3.995 3.080,3.996 3.090,3.997 3.100,3.998 3.110,3.999 3.120,4.000 3.130,4.000 3.140,4.000 3.150,4.000 3.160,4.000 3.170,3.999 3.180,3.999 3.190,3.998 3.200,3.997 3.210,3.995 3.220,3.994 3.230,3.992 3.240,3.990 3.250,3.988 3.260,3.986 3.270,3.984 3.280,3.981 3.290,3.978 3.300,3.975 3.310,3.972 3.320,3.968 3.330,3.965 3.340,3.961 3.350,3.957 3.360,3.952 3.370,3.948 3.380,3.943 3.390,3.939 3.400,3.934 3.410,3.928 3.420,3.923 3.430,3.917 3.440,3.912 3.450,3.906 3.460,3.899 3.470,3.893 3.480,3.887 3.490,3.880 3.500,3.873 3.510,3.866 3.520,3.859 3.530,3.851 3.540,3.843 3.550,3.836 3.560,3.827 3.570,3.819 3.580,3.811 3.590,3.802 3.600,3.794 3.610,3.785 3.620,3.775 3.630,3.766 3.640,3.757 3.650,3.747 3.660,3.737 3.670,3.727 3.680,3.717 3.690,3.707 3.700,3.696 3.710,3.686 3.720,3.675 3.730,3.664 3.740,3.652 3.750,3.641 3.760,3.630 3.770,3.618 3.780,3.606 3.790,3.594 3.800,3.582 3.810,3.570 3.820,3.557 3.830,3.545 3.840,3.532 3.850,3.519 3.860,3.506 3.870,3.492 3.880,3.479 3.890,3.466 3.900,3.452 3.910,3.438 3.920,3.424 3.930,3.410 3.940,3.396 3.950,3.381 3.960,3.367 3.970,3.352 3.980,3.337 3.990,3.322 4.000,3.307 4.010,3.292 4.020,3.277 4.030,3.261 4.040,3.246 4.050,3.230 4.060,3.214 4.070,3.198 4.080,3.182 4.090,3.166 4.100,3.150 4.110,3.133 4.120,3.117 4.130,3.100 4.140,3.083 4.150,3.066 4.160,3.049 4.170,3.032 4.180,3.015 4.190,2.998 4.200,2.981 4.210,2.963 4.220,2.945 4.230,2.928 4.240,2.910 4.250,2.892 4.260,2.874 4.270,2.856 4.280,2.838 4.290,2.820 4.300,2.802 4.310,2.783 4.320,2.765 4.330,2.746 4.340,2.728 4.350,2.709 4.360,2.690 4.370,2.671 4.380,2.653 4.390,2.634 4.400,2.615 4.410,2.596 4.420,2.576 4.430,2.557 4.440,2.538 4.450,2.519 4.460,2.499 4.470,2.480 4.480,2.461 4.490,2.441 4.500,2.422 4.510,2.402 4.520,2.382 4.530,2.363 4.540,2.343 4.550,2.323 4.560,2.304 4.570,2.284 4.580,2.264 4.590,2.244 4.600,2.224 4.610,2.204 4.620,2.185 4.630,2.165 4.640,2.145 4.650,2.125 4.660,2.105 4.670,2.085 4.680,2.065 4.690,2.045 4.700,2.025 4.710,2.005 4.720,1.985 4.730,1.965 4.740,1.945 4.750,1.925 4.760,1.905 4.770,1.885 4.780,1.865 4.790,1.845 4.800,1.825 4.810,1.805 4.820,1.785 4.830,1.765 4.840,1.745 4.850,1.726 4.860,1.706 4.870,1.686 4.880,1.666 4.890,1.647 4.900,1.627 4.910,1.607 4.920,1.588 4.930,1.568 4.940,1.549 4.950,1.529 4.960,1.510 4.970,1.490 4.980,1.471 4.990,1.452 5.000,1.433 5.010,1.414 5.020,1.394 5.030,1.375 5.040,1.356 5.050,1.338 5.060,1.319 5.070,1.300 5.080,1.281 5.090,1.263 5.100,1.244 5.110,1.226 5.120,1.207 5.130,1.189 5.140,1.171 5.150,1.152 5.160,1.134 5.170,1.116 5.180,1.098 5.190,1.081 5.200,1.063 5.210,1.045 5.220,1.028 5.230,1.010 5.240,0.993 5.250,0.976 5.260,0.959 5.270,0.942 5.280,0.925 5.290,0.908 5.300,0.891 5.310,0.875 5.320,0.858 5.330,0.842 5.340,0.826 5.350,0.809 5.360,0.793 5.370,0.778 5.380,0.762 5.390,0.746 5.400,0.731 5.410,0.715 5.420,0.700 5.430,0.685 5.440,0.670 5.450,0.655 5.460,0.640 5.470,0.626 5.480,0.611 5.490,0.597 5.500,0.583 5.510,0.569 5.520,0.555 5.530,0.541 5.540,0.527 5.550,0.514 5.560,0.501 5.570,0.487 5.580,0.474 5.590,0.462 5.600,0.449 5.610,0.436 5.620,0.424 5.630,0.412 5.640,0.400 5.650,0.388 5.660,0.376 5.670,0.364 5.680,0.353 5.690,0.342 5.700,0.331 5.710,0.320 5.720,0.309 5.730,0.298 5.740,0.288 5.750,0.278 5.760,0.268 5.770,0.258 5.780,0.248 5.790,0.238 5.800,0.229 5.810,0.220 5.820,0.211 5.830,0.202 5.840,0.193 5.850,0.185 5.860,0.176 5.870,0.168 5.880,0.160 5.890,0.153 5.900,0.145 5.910,0.138 5.920,0.130 5.930,0.123 5.940,0.117 5.950,0.110 5.960,0.104 5.970,0.097 5.980,0.091 5.990,0.085 6.000,0.080 6.010,0.074 6.020,0.069 6.030,0.064 6.040,0.059 6.050,0.054 6.060,0.050 6.070,0.045 6.080,0.041 6.090,0.037 6.100,0.033 6.110,0.030 6.120,0.027 6.130,0.023 6.140,0.020 6.150,0.018 6.160,0.015 6.170,0.013 6.180,0.011 6.190,0.009 6.200,0.007 6.210,0.005 6.220,0.004 6.230,0.003 6.240,0.002 6.250,0.001 6.260,0.001 6.270,0.000 6.280,0.000 6.290,0.000 6.300,0.000 6.310,0.001 6.320,0.001 6.330,0.002 6.340,0.003 6.350,0.004 6.360,0.006 6.370,0.008 6.380,0.009 6.390,0.011 6.400,0.014 6.410,0.016 6.420,0.019 6.430,0.022 6.440,0.025 6.450,0.028 6.460,0.031 6.470,0.035 6.480,0.039 6.490,0.043 6.500,0.047 6.510,0.051 6.520,0.056 6.530,0.061 6.540,0.066 6.550,0.071 6.560,0.076 6.570,0.082 6.580,0.087 6.590,0.093 6.600,0.100 6.610,0.106 6.620,0.112 6.630,0.119 6.640,0.126 6.650,0.133 6.660,0.140 6.670,0.148 6.680,0.155 6.690,0.163 6.700,0.171 6.710,0.179 6.720,0.188 6.730,0.196 6.740,0.205 6.750,0.214 6.760,0.223 6.770,0.232 6.780,0.242 6.790,0.251 6.800,0.261 6.810,0.271 6.820,0.281 6.830,0.292 6.840,0.302 6.850,0.313 6.860,0.324 6.870,0.335 6.880,0.346 6.890,0.357 6.900,0.369 6.910,0.380 6.920,0.392 6.930,0.404 6.940,0.416 6.950,0.428 6.960,0.441 6.970,0.453 6.980,0.466 6.990,0.479 7.000,0.492 7.010,0.505 7.020,0.519 7.030,0.532 7.040,0.546 7.050,0.560 7.060,0.574 7.070,0.588 7.080,0.602 7.090,0.616 7.100,0.631 7.110,0.646 7.120,0.660 7.130,0.675 7.140,0.690 7.150,0.705 7.160,0.721 7.170,0.736 7.180,0.752 7.190,0.767 7.200,0.783 7.210,0.799 7.220,0.815 7.230,0.831 7.240,0.848 7.250,0.864 7.260,0.881 7.270,0.897 7.280,0.914 7.290,0.931 7.300,0.948 7.310,0.965 7.320,0.982 7.330,0.999 7.340,1.017 7.350,1.034 7.360,1.052 7.370,1.069 7.380,1.087 7.390,1.105 7.400,1.123 7.410,1.141 7.420,1.159 7.430,1.177 7.440,1.195 7.450,1.214 7.460,1.232 7.470,1.251 7.480,1.269 7.490,1.288 7.500,1.307 7.510,1.326 7.520,1.344 7.530,1.363 7.540,1.382 7.550,1.401 7.560,1.420 7.570,1.440 7.580,1.459 7.590,1.478 7.600,1.497 7.610,1.517 7.620,1.536 7.630,1.556 7.640,1.575 7.650,1.595 7.660,1.614 7.670,1.634 7.680,1.654 7.690,1.674 7.700,1.693 7.710,1.713 7.720,1.733 7.730,1.753 7.740,1.773 7.750,1.792 7.760,1.812 7.770,1.832 7.780,1.852 7.790,1.872 7.800,1.892 7.810,1.912 7.820,1.932 7.830,1.952 7.840,1.972 7.850,1.992 7.860,2.012 7.870,2.032 7.880,2.052 7.890,2.072 7.900,2.092 7.910,2.112 7.920,2.132 7.930,2.152 7.940,2.172 7.950,2.192 7.960,2.212 7.970,2.232 7.980,2.251 7.990,2.271 8.000,2.291 8.010,2.311 8.020,2.331 8.030,2.350 8.040,2.370 8.050,2.390 8.060,2.409 8.070,2.429 8.080,2.448 8.090,2.468 8.100,2.487 8.110,2.506 8.120,2.526 8.130,2.545 8.140,2.564 8.150,2.583 8.160,2.603 8.170,2.622 8.180,2.641 8.190,2.659 8.200,2.678 8.210,2.697 8.220,2.716 8.230,2.734 8.240,2.753 8.250,2.771 8.260,2.790 8.270,2.808 8.280,2.826 8.290,2.845 8.300,2.863 8.310,2.881 8.320,2.899 8.330,2.916 8.340,2.934 8.350,2.952 8.360,2.969 8.370,2.987 8.380,3.004 8.390,3.021 8.400,3.039 8.410,3.056 8.420,3.073 8.430,3.089 8.440,3.106 8.450,3.123 8.460,3.139 8.470,3.156 8.480,3.172 8.490,3.188 8.500,3.204 8.510,3.220 8.520,3.236 8.530,3.251 8.540,3.267 8.550,3.282 8.560,3.298 8.570,3.313 8.580,3.328 8.590,3.343 8.600,3.357 8.610,3.372 8.620,3.387 8.630,3.401 8.640,3.415 8.650,3.429 8.660,3.443 8.670,3.457 8.680,3.470 8.690,3.484 8.700,3.497 8.710,3.510 8.720,3.524 8.730,3.536 8.740,3.549 8.750,3.562 8.760,3.574 8.770,3.586 8.780,3.598 8.790,3.610 8.800,3.622 8.810,3.634 8.820,3.645 8.830,3.657 8.840,3.668 8.850,3.679 8.860,3.689 8.870,3.700 8.880,3.710 8.890,3.721 8.900,3.731 8.910,3.741 8.920,3.751 8.930,3.760 8.940,3.770 8.950,3.779 8.960,3.788 8.970,3.797 8.980,3.805 8.990,3.814 9.000,3.822 9.010,3.830 9.020,3.838 9.030,3.846 9.040,3.854 9.050,3.861 9.060,3.868 9.070,3.875 9.080,3.882 9.090,3.889 9.100,3.895 9.110,3.902 9.120,3.908 9.130,3.914 9.140,3.919 9.150,3.925 9.160,3.930 9.170,3.935 9.180,3.940 9.190,3.945 9.200,3.950 9.210,3.954 9.220,3.958 9.230,3.962 9.240,3.966 9.250,3.970 9.260,3.973 9.270,3.976 9.280,3.979 9.290,3.982 9.300,3.984 9.310,3.987 9.320,3.989 9.330,3.991 9.340,3.993 9.350,3.994 9.360,3.996 9.370,3.997 9.380,3.998 9.390,3.999 9.400,3.999 9.410,4.000 9.420,4.000 9.430,4.000 9.440,4.000 9.450,3.999 9.460,3.999 9.470,3.998 9.480,3.997 9.490,3.996 9.500,3.994 9.510,3.993 9.520,3.991 9.530,3.989 9.540,3.987 9.550,3.984 9.560,3.982 9.570,3.979 9.580,3.976 9.590,3.973 9.600,3.969 9.610,3.966 9.620,3.962 9.630,3.958 9.640,3.954 9.650,3.949 9.660,3.945 9.670,3.940 9.680,3.935 9.690,3.930 9.700,3.925 9.710,3.919 9.720,3.913 9.730,3.908 9.740,3.901 9.750,3.895 9.760,3.889 9.770,3.882 9.780,3.875 9.790,3.868 9.800,3.861 9.810,3.853 9.820,3.846 9.830,3.838 9.840,3.830 9.850,3.822 9.860,3.814 9.870,3.805 9.880,3.796 9.890,3.787 9.900,3.778 9.910,3.769 9.920,3.760 9.930,3.750 9.940,3.740 9.950,3.730 9.960,3.720 9.970,3.710 9.980,3.700 9.990,3.689 10.000,3.678 10.010,3.667 10.020,3.656 10.030,3.645 10.040,3.633 10.050,3.622 10.060,3.610 10.070,3.598 10.080,3.586 10.090,3.574 10.100,3.561 10.110,3.549 10.120,3.536 10.130,3.523 10.140,3.510 10.150,3.497 10.160,3.483 10.170,3.470 10.180,3.456 10.190,3.442 10.200,3.429 10.210,3.414 10.220,3.400 10.230,3.386 10.240,3.371 10.250,3.357 10.260,3.342 10.270,3.327 10.280,3.312 10.290,3.297 10.300,3.282 10.310,3.266 10.320,3.251 10.330,3.235 10.340,3.219 10.350,3.203 10.360,3.187 10.370,3.171 10.380,3.155 10.390,3.138 10.400,3.122 10.410,3.105 10.420,3.089 10.430,3.072 10.440,3.055 10.450,3.038 10.460,3.021 10.470,3.003 10.480,2.986 10.490,2.969 10.500,2.951 10.510,2.933 10.520,2.916 10.530,2.898 10.540,2.880 10.550,2.862 10.560,2.844 10.570,2.826 10.580,2.807 10.590,2.789 10.600,2.771 10.610,2.752 10.620,2.734 10.630,2.715 10.640,2.696 10.650,2.677 10.660,2.659 10.670,2.640 10.680,2.621 10.690,2.602 10.700,2.583 10.710,2.563 10.720,2.544 10.730,2.525 10.740,2.506 10.750,2.486 10.760,2.467 10.770,2.447 10.780,2.428 10.790,2.408 10.800,2.389 10.810,2.369 10.820,2.349 10.830,2.330 10.840,2.310 10.850,2.290 10.860,2.270 10.870,2.250 10.880,2.231 10.890,2.211 10.900,2.191 10.910,2.171 10.920,2.151 10.930,2.131 10.940,2.111 10.950,2.091 10.960,2.071 10.970,2.051 10.980,2.031 10.990,2.011 11.000,1.991 11.010,1.971 11.020,1.951 11.030,1.931 11.040,1.911 11.050,1.891 11.060,1.871 11.070,1.851 11.080,1.831 11.090,1.811 11.100,1.792 11.110,1.772 11.120,1.752 11.130,1.732 11.140,1.712 11.150,1.692 11.160,1.673 11.170,1.653 11.180,1.633 11.190,1.614 11.200,1.594 11.210,1.574 11.220,1.555 11.230,1.535 11.240,1.516 11.250,1.497 11.260,1.477 11.270,1.458 11.280,1.439 11.290,1.420 11.300,1.401 11.310,1.381 11.320,1.362 11.330,1.344 11.340,1.325 11.350,1.306 11.360,1.287 11.370,1.269 11.380,1.250 11.390,1.231 11.400,1.213 11.410,1.195 11.420,1.176 11.430,1.158 11.440,1.140 11.450,1.122 11.460,1.104 11.470,1.086 11.480,1.069 11.490,1.051 11.500,1.033 11.510,1.016 11.520,0.999 11.530,0.981 11.540,0.964 11.550,0.947 11.560,0.930 11.570,0.913 11.580,0.897 11.590,0.880 11.600,0.863 11.610,0.847 11.620,0.831 11.630,0.815 11.640,0.799 11.650,0.783 11.660,0.767 11.670,0.751 11.680,0.736 11.690,0.720 11.700,0.705 11.710,0.690 11.720,0.675 11.730,0.660 11.740,0.645 11.750,0.630 11.760,0.616 11.770,0.601 11.780,0.587 11.790,0.573 11.800,0.559 11.810,0.545 11.820,0.532 11.830,0.518 11.840,0.505 11.850,0.492 11.860,0.479 11.870,0.466 11.880,0.453 11.890,0.440 11.900,0.428 11.910,0.416 11.920,0.403 11.930,0.391 11.940,0.380 11.950,0.368 11.960,0.357 11.970,0.345 11.980,0.334 11.990,0.323 12.000,0.312 12.010,0.302 12.020,0.291 12.030,0.281 12.040,0.271 12.050,0.261 12.060,0.251 12.070,0.241 12.080,0.232 12.090,0.223 12.100,0.214 12.110,0.205 12.120,0.196 12.130,0.187 12.140,0.179 12.150,0.171 12.160,0.163 12.170,0.155 12.180,0.147 12.190,0.140 12.200,0.133 12.210,0.126 12.220,0.119 12.230,0.112 12.240,0.106 12.250,0.099 12.260,0.093 12.270,0.087 12.280,0.081 12.290,0.076 12.300,0.071 12.310,0.065 12.320,0.060 12.330,0.056 12.340,0.051 12.350,0.047 12.360,0.042 12.370,0.038 12.380,0.035 12.390,0.031 12.400,0.028 12.410,0.024 12.420,0.021 12.430,0.019 12.440,0.016 12.450,0.014 12.460,0.011 12.470,0.009 12.480,0.007 12.490,0.006 12.500,0.004 12.510,0.003 12.520,0.002 12.530,0.001 12.540,0.001 12.550,0.000 12.560,0.000 " transform="translate(0, 0.2)"/>
</svg>
