<svg width="10" height="490" viewBox="0 0 10 490" fill="none" xmlns="http://www.w3.org/2000/svg">
<path d="M5.00001 1C10.3333 9.13333 10.3333 17.2667 5.00001 25.4C-0.33331 33.5333 -0.33331 41.6667 5.00001 49.8C10.3333 57.9333 10.3333 66.0667 5.00001 74.2C-0.333311 82.3333 -0.333312 90.4667 5.00001 98.6C10.3333 106.733 10.3333 114.867 5.00001 123C-0.333314 131.133 -0.333314 139.267 5 147.4C10.3333 155.533 10.3333 163.667 5 171.8C-0.333316 179.933 -0.333316 188.067 5 196.2C10.3333 204.333 10.3333 212.467 5 220.6C-0.333318 228.733 -0.333318 236.867 5 245C10.3333 253.133 10.3333 261.267 5 269.4C-0.33332 277.533 -0.33332 285.667 5 293.8C10.3333 301.933 10.3333 310.067 5 318.2C-0.333322 326.333 -0.333323 334.467 5 342.6C10.3333 350.733 10.3333 358.867 4.99999 367C-0.333324 375.133 -0.333325 383.267 4.99999 391.4C10.3333 399.533 10.3333 407.667 4.99999 415.8C-0.333326 423.933 -0.333327 432.067 4.99999 440.2C10.3333 448.333 10.3333 456.467 4.99999 464.6C-0.333328 472.733 -0.333329 480.867 4.99999 489" stroke="black"/>
</svg>
