<svg width="1150" height="1185" xmlns="http://www.w3.org/2000/svg" xmlns:xlink="http://www.w3.org/1999/xlink" xml:space="preserve" overflow="hidden"><defs><clipPath id="clip0"><rect x="1625" y="618" width="1150" height="1185"/></clipPath></defs><g clip-path="url(#clip0)" transform="translate(-1625 -618)"><path d="M1634 1205.5C1634 881.033 1884.27 618 2193 618 2501.73 618 2752 881.033 2752 1205.5 2752 1529.97 2501.73 1793 2193 1793 1884.27 1793 1634 1529.97 1634 1205.5Z" fill="#E6F2FA" fill-rule="evenodd"/><path d="M593.745 1179.25C588.266 1177.26 579.55 1171.54 574.569 1166.56 565.355 1157.6 561.371 1146.15 559.379 1125 558.88 1119.03 557.137 1117.29 546.18 1113.31 539.207 1110.57 531.238 1105.84 528.001 1102.86 522.273 1096.63 505.339 1043.13 505.339 1030.94 505.339 1020.49 511.565 1007.55 520.281 999.338L528.001 992.371 524.016 982.666C521.775 977.191 512.81 947.828 503.844 916.973 494.88 886.116 485.914 858.495 483.922 855.26 481.93 852.025 477.198 848.293 473.463 846.799 424.902 826.644 398.504 809.225 377.337 783.594 352.931 753.983 341.725 725.118 307.359 602.191 300.634 579.049 294.907 559.141 294.409 558.146 293.911 557.151 284.199 560.386 272.992 565.114 240.867 578.551 222.438 582.284 184.088 582.035 138.515 582.035 100.164 572.828 51.3536 550.432 39.4002 544.958 28.9405 540.976 28.443 541.723 24.7075 545.206 22.9638 581.288 24.9562 608.91 30.6842 685.801 42.8864 740.297 68.7857 806.239 93.6893 869.693 121.332 916.724 163.418 968.233 234.641 1054.83 349.196 1124.75 457.276 1147.4 501.105 1156.6 500.358 1156.11 500.358 1168.55L500.358 1179 483.673 1177.26C435.61 1172.28 389.29 1157.6 327.032 1127.24 231.902 1080.96 161.675 1019.74 104.647 933.147 64.3033 872.181 24.4581 774.885 10.0142 702.97 0.0531532 652.705-3.18426 567.105 3.53934 523.309 16.9871 432.98 40.8945 351.112 67.5407 303.584 100.413 244.609 126.063 210.518 172.632 164.234 212.726 124.42 262.533 87.5915 311.343 61.2145 337.242 47.2795 392.527 25.3812 425.15 16.4232 480.186 1.2441 491.393 0 580.049 0 654.758 0.248819 660.787 2.68659 687.132 5.72339 764.089 14.5943 827.835 48.026 880.132 82.6146 935.417 119.443 985.721 165.229 1025.82 215.495 1055.7 252.821 1084.59 304.33 1103.51 353.351 1121.19 398.889 1124.68 410.336 1134.39 454.131 1158.3 561.63 1154.81 663.405 1123.44 766.425 1087.58 885.121 1025.07 978.187 931.432 1053.09 896.568 1081.21 826.839 1123.26 814.885 1123.51 810.652 1123.51 808.162 1104.1 811.897 1099.62 813.64 1097.38 821.609 1092.4 829.329 1088.42 855.229 1075.48 909.518 1037.41 936.164 1013.52 998.92 957.285 1043.99 894.825 1079.11 815.446 1092.56 784.839 1109.99 720.389 1117.21 675.598 1122.69 642.503 1123.93 625.582 1123.93 588.007 1124.18 562.625 1123.44 540.728 1122.44 539.732 1121.44 538.737 1109.99 543.216 1097.04 549.686 1068.15 564.118 1030.55 577.058 1005.89 581.04 979.495 585.518 932.18 585.021 902.545 579.795 873.657 574.819 836.8 563.123 806.667 549.188 777.033 535.502 731.958 521.318 731.958 525.549 731.958 526.793 734.697 538.239 737.934 551.179 749.39 596.219 755.118 637.028 753.623 660.419 750.635 705.21 734.946 741.292 700.829 781.355 689.622 794.544 684.642 802.258 684.642 806.986 684.642 810.718 690.121 835.602 696.844 862.228 703.319 888.854 710.292 918.963 712.035 928.916 715.024 945.34 715.771 946.833 721.249 946.833 727.724 946.833 740.674 952.556 747.896 959.026 754.869 965.247 759.601 975.947 765.826 1000.83 774.542 1034.92 774.044 1042.89 761.842 1058.31 756.363 1065.03 751.88 1072.5 751.88 1074.49 751.88 1076.48 754.121 1083.69 757.11 1090.41 764.083 1106.34 763.585 1116.29 755.865 1129.48 746.651 1145.16 734.697 1154.12 708.549 1164.32 665.217 1181.49 616.905 1187.71 593.745 1179.25ZM668.454 1150.88C701.078 1142.67 734.448 1125 734.448 1116.04 734.448 1113.8 732.207 1109.82 729.218 1107.09 718.261 1097.38 666.213 1103.1 626.617 1118.78 609.185 1125.75 592.5 1139.43 592.5 1147.15 592.5 1154.86 594.492 1155.36 623.878 1155.61 641.31 1155.86 654.758 1154.36 668.454 1150.88ZM596.982 1105.09C627.614 1084.69 694.852 1069.76 718.012 1078.72 725.981 1081.7 726.23 1078.47 720.751 1059.31 716.269 1044.63 718.012 1044.88 679.661 1048.86 642.804 1052.59 627.115 1055.82 607.442 1064.04 577.309 1076.48 576.562 1076.98 578.803 1098.13 579.799 1108.08 581.294 1115.55 582.29 1114.8 583.535 1114.3 590.01 1109.82 596.982 1105.09ZM551.161 1075.48C557.386 1060.06 574.569 1049.6 621.139 1031.94 657.248 1018.25 699.833 1012.78 722.245 1019 727.226 1020.49 735.444 1024.22 740.425 1027.71 745.405 1030.94 749.39 1033.18 749.39 1032.19 749.39 1026.21 730.463 984.408 725.732 980.178 716.269 971.468 690.121 968.233 658.493 971.717 625.372 975.201 605.948 980.924 570.834 998.094 540.452 1013.02 531.736 1021.24 531.736 1035.17 531.736 1044.38 543.191 1083.69 545.682 1083.69 546.678 1083.69 549.168 1079.96 551.161 1075.48ZM553.9 971.717C555.892 968.482 627.614 945.589 648.034 941.856 657.497 940.114 670.696 939.368 677.42 940.114 684.144 940.861 689.622 940.612 689.622 939.617 689.622 938.373 687.381 930.41 684.891 921.7 671.941 878.651 656.75 811.464 657.995 802.506 659.24 792.802 669.451 775.88 683.895 759.955 697.342 745.274 709.296 723.126 716.767 699.238 726.23 670.124 728.222 653.203 724.736 630.559 721.498 610.403 702.572 528.286 694.354 498.923 691.366 488.72 685.389 465.827 680.657 447.91 676.175 430.243 670.945 410.834 668.952 405.359 666.711 399.636 662.727 382.964 659.738 368.033 655.754 347.877 653.252 334.331 647.732 323.193 642.213 312.054 645.324 304.829 626.621 301.202 619.179 312.82 623.132 320.945 623.878 327.224 624.625 331.951 628.112 344.891 631.1 355.84 634.337 366.789 638.322 382.466 639.816 390.678 641.31 398.889 646.042 416.308 649.777 429.247 672.19 503.65 696.595 612.393 693.607 624.089 692.611 628.07 684.144 638.77 674.432 648.226 635.831 686.05 552.655 715.412 484.42 715.412 440.092 715.412 413.197 703.469 404.73 679.829 396.014 655.193 321.055 402.373 313.335 371.517L310.596 359.821 295.903 367.038C287.934 371.268 279.716 374.503 277.724 374.503 275.731 374.503 273.49 375.25 272.992 376.494 272.245 377.489 278.471 401.875 286.44 430.492 294.658 459.357 306.86 503.401 313.584 528.783 343.468 640.014 348.697 658.926 359.406 691.275 371.359 727.606 378.83 742.536 396.263 765.678 411.204 785.336 427.143 797.032 463.252 814.202 499.611 831.62 506.086 838.339 515.051 869.693 518.04 879.895 523.767 899.554 527.752 913.24 531.736 926.926 537.215 944.594 539.954 952.308 542.943 960.27 545.184 968.233 545.184 970.473 545.184 974.703 551.409 975.698 553.9 971.717ZM535.222 683.81C576.064 675.847 611.675 661.166 643.551 639.019 658.493 628.817 660.984 626.079 660.984 619.609 660.984 613.388 659.24 611.398 649.777 606.67 630.104 596.965 573.823 600.2 533.479 613.14 479.938 630.31 446.069 649.968 436.108 669.626 432.373 676.594 437.851 681.819 453.042 685.303 476.949 691.027 501.603 690.529 535.222 683.81ZM430.131 635.535C470.225 604.928 523.02 584.772 590.01 574.57 618.399 570.339 631.349 571.335 650.275 578.8 656.75 581.288 662.229 582.533 662.229 581.288 662.229 580.293 658.245 565.86 653.263 549.686 635.085 488.72 630.104 471.55 618.648 425.515 599.971 350.366 597.729 339.665 595.986 316.772L594.243 295.372 578.803 292.635C559.877 289.4 515.549 289.151 490.397 292.386 452.544 297.363 410.209 311.298 360.9 335.435 341.725 344.891 339.733 346.633 338.985 353.6 338.238 362.31 343.966 387.442 358.161 435.468 363.639 453.385 373.601 487.974 380.823 512.609 400.994 582.781 419.921 640.761 422.66 640.761 423.158 640.761 426.645 638.521 430.131 635.535ZM1009.63 550.681C1036.52 544.46 1056.94 536.995 1086.83 522.313 1120.7 505.89 1119.95 506.885 1114.72 488.222 1112.23 479.762 1108.49 463.338 1106.5 451.643 1101.02 422.28 1101.77 423.524 1095.05 427.506 1051.22 454.878 1004.15 469.062 957.83 469.062 913.502 469.062 879.633 460.85 812.146 433.229 796.457 427.008 776.783 419.543 767.818 417.055 750.386 411.58 710.043 407.847 705.311 411.082 703.07 412.824 704.066 419.792 709.794 440.445 713.779 455.624 717.763 472.048 718.759 477.273 720.502 488.222 721 488.471 750.884 498.425 763.087 502.655 784.752 511.115 798.45 517.336 812.395 523.557 838.543 533.511 856.972 539.732 886.108 549.686 901.05 553.17 929.938 557.151 944.88 559.141 987.714 555.658 1009.63 550.681ZM231.652 548.69C243.357 546.202 260.789 540.728 270.004 536.497 289.428 527.539 289.179 532.516 274.486 483.245 267.015 457.615 264.525 451.892 261.287 453.136 236.882 463.836 224.182 466.822 197.037 468.066 151.963 470.555 106.888 461.099 66.2957 440.694 49.8593 432.234 49.6105 432.234 48.365 437.459 47.3693 441.938 36.4116 485.734 30.6842 507.632 29.688 511.862 32.6761 514.102 48.8631 521.816 73.7667 533.511 118.592 547.446 142.001 550.93L166.655 554.663C177.364 556.404 209.24 553.419 231.652 548.69ZM944.88 367.038C979.745 363.803 1017.41 354.803 1035.78 345.389 1054.15 335.974 1067.9 335.782 1055.1 310.551 1040.17 277.314 1053.19 302.187 1039.21 278.751 1025.32 253.12 1026.18 266.474 1006.39 266.507 986.601 266.54 953.596 280.939 920.475 278.948 883.867 276.709 861.952 272.23 830.076 260.037 815.135 254.314 797.702 248.093 791.477 246.102 785.002 244.111 771.554 238.886 761.592 234.158 729.716 219.725 659.988 197.827 614.415 187.873 596.982 184.141 554.647 178.667 528.747 176.676 475.206 172.445 408.216 191.109 316.821 235.402 263.28 261.281 241.614 268.497 201.271 274.221 172.881 278.202 169.644 278.202 144.74 274.221 123.573 270.737 117.845 270.488 117.098 272.977 115.853 277.207 94.4362 318.016 85.969 332.698L79.2454 344.145 98.6698 350.614C129.55 360.816 150.967 364.549 181.099 364.549 227.668 364.549 256.805 356.587 318.565 326.725 382.566 295.621 394.022 290.644 429.384 279.198 525.012 248.093 617.154 259.788 741.919 318.514 797.951 345.14 851.244 362.559 888.599 367.038 912.755 369.775 914.996 369.775 944.88 367.038Z" fill="#022C58" fill-rule="evenodd" transform="matrix(1 0 0 -1 1625 1803)"/><path d="M1.95045 70.7183C-0.551608 66.2109-2.30277 53.4404-0.301127 50.9366 1.95045 47.6816 34.7249 34.9111 60.2436 27.3991 70.5012 24.394 91.2663 18.1339 106.027 13.3766 161.318-4.40207 177.83-5.4036 177.83 8.11808 177.83 14.8789 170.825 22.3909 164.821 22.3909 161.068 22.3909 127.543 31.9059 60.2436 52.1885 38.2272 58.9493 22.4656 64.4582 6.20366 71.4695 4.4525 72.2206 2.70079 71.9702 1.95045 70.7183Z" fill="#022C58" fill-rule="evenodd" transform="matrix(1 0 0 -1 2055 1304)"/><path d="M-0.492304 65.9208C-2.49177 62.9495 0.507705 51.066 3.75746 48.3423 8.50723 44.3813 89.5013 18.8802 127.748 8.97713 170.995-2.16426 181.494-3.40207 183.744 2.53997 187.244 11.4528 182.994 15.6613 164.495 20.6131 154.496 23.3368 132.498 30.2691 115.249 35.7155 11.757 68.644 2.50772 71.1202-0.492304 65.9208Z" fill="#022C58" fill-rule="evenodd" transform="matrix(1 0 0 -1 2035 1352)"/><path d="M2.63411 68.0452C-4.60777 62.7981-1.11156 55.5522 11.1238 49.8054 17.3668 46.8073 42.0881 38.5621 66.0599 31.3162 90.0318 24.3202 118.249 15.0751 128.487 11.3275 166.193-3.16425 176.182-4.16361 182.674 5.3308 185.67 10.0783 185.67 11.3275 182.424 14.3255 178.429 18.5733 145.967 30.067 81.0426 50.0557 10.6244 71.7933 8.37707 72.293 2.63411 68.0452Z" fill="#022C58" fill-rule="evenodd" transform="matrix(1 0 0 -1 2022 1405)"/><path d="M-0.550856 61.689C-1.29923 59.202-1.29923 55.4709-0.301764 53.2326 1.19444 49.5014 36.6012 34.0807 43.8326 34.0807 45.5779 34.0807 61.7853 29.1061 79.489 22.8879 114.896 10.7009 157.784-0.740635 168.007-0.740635 175.986-0.740635 180.973 4.4827 179.726 11.6957 178.978 16.4211 174.739 18.1625 146.563 25.3755 128.859 29.8522 111.405 34.5781 107.915 36.0703 104.423 37.5625 92.7041 41.5424 81.733 45.0248 70.762 48.5066 52.3105 54.7248 40.5911 58.7046 15.6566 67.6585 1.69317 68.6533-0.550856 61.689Z" fill="#022C58" fill-rule="evenodd" transform="matrix(1 0 0 -1 2013 1450)"/></g></svg>