<svg width="1417" height="255" xmlns="http://www.w3.org/2000/svg" xmlns:xlink="http://www.w3.org/1999/xlink" xml:space="preserve" overflow="hidden"><defs><clipPath id="clip0"><rect x="1494" y="1884" width="1417" height="255"/></clipPath></defs><g clip-path="url(#clip0)" transform="translate(-1494 -1884)"><path d="M2252.13 1975.28 2235.96 1977.37C2230.81 1978.76 2225.9 1980.85 2221.23 1983.64 2211.89 1989.21 2204.94 1997.71 2200.37 2009.13 2195.8 2020.55 2193.52 2033.15 2193.52 2046.92 2193.52 2058.97 2195.39 2069.65 2199.14 2078.98 2202.89 2088.3 2209.01 2095.79 2217.51 2101.45 2221.75 2104.29 2226.46 2106.41 2231.61 2107.83L2248.44 2109.95 2272.02 2105.78C2279.33 2103 2285.73 2098.36 2291.22 2091.88 2296.71 2085.4 2300.81 2077.33 2303.52 2067.69 2306.23 2058.05 2307.58 2047.9 2307.58 2037.25 2307.58 2027.45 2306.23 2018.22 2303.54 2009.59 2300.85 2000.95 2296.84 1994.13 2291.51 1989.12 2286.18 1984.12 2280.04 1980.56 2273.1 1978.45ZM1915.2 1975.28 1899.04 1977.37C1893.89 1978.76 1888.98 1980.85 1884.31 1983.64 1874.96 1989.21 1868.01 1997.71 1863.44 2009.13 1858.87 2020.55 1856.59 2033.15 1856.59 2046.92 1856.59 2058.97 1858.46 2069.65 1862.21 2078.98 1865.96 2088.3 1872.09 2095.79 1880.58 2101.45 1884.83 2104.29 1889.53 2106.41 1894.68 2107.83L1911.51 2109.95 1935.09 2105.78C1942.4 2103 1948.8 2098.36 1954.29 2091.88 1959.78 2085.4 1963.88 2077.33 1966.59 2067.69 1969.3 2058.05 1970.65 2047.9 1970.65 2037.25 1970.65 2027.45 1969.31 2018.22 1966.61 2009.59 1963.92 2000.95 1959.91 1994.13 1954.58 1989.12 1949.25 1984.12 1943.12 1980.56 1936.17 1978.45ZM2600.9 1949.82 2600.9 1949.82 2600.9 1949.82C2599.51 1970.74 2598.27 1991.18 2597.17 2011.14 2596.07 2031.1 2595.2 2052.54 2594.55 2075.44 2593.89 2098.35 2593.57 2118.22 2593.57 2135.06L2593.57 2135.06 2593.57 2135.06 2573.96 2134.7 2553.48 2135.06 2553.48 2135.06 2553.48 2135.06 2556.61 2086.71 2560.07 2011.39 2561.62 1949.83 2561.62 1949.83 2561.62 1949.83 2581.25 1950.04ZM2736.93 1945.69 2736.93 1945.69 2736.93 1945.69C2742.21 1945.69 2747.48 1946.31 2752.74 1947.56 2758 1948.81 2762.84 1950.56 2767.26 1952.8 2771.69 1955.04 2775.54 1957.64 2778.83 1960.61 2782.11 1963.57 2784.76 1966.79 2786.76 1970.28L2789.99 1982.09 2799.61 1965.46C2803.64 1960.82 2808.48 1957.07 2814.15 1954.23 2825.49 1948.53 2838.08 1945.69 2851.92 1945.69L2851.92 1945.69 2851.92 1945.69C2860.72 1945.69 2869.35 1947.13 2877.81 1950.01 2886.27 1952.88 2893.06 1957.07 2898.18 1962.56 2903.29 1968.05 2906.71 1973.75 2908.42 1979.65 2910.14 1985.55 2911 1991.37 2911 1997.11 2911 2002.39 2910.57 2010.83 2909.72 2022.41 2908.86 2034 2907.91 2051.01 2906.86 2073.45 2905.82 2095.89 2905.23 2116.42 2905.09 2135.06L2905.09 2135.06 2905.09 2135.06 2886.75 2134.7 2866.45 2135.06 2866.45 2135.06 2866.45 2135.06C2867.74 2116.54 2868.85 2098.06 2869.77 2079.6L2872.04 2035.98C2872.62 2025.44 2872.91 2016.41 2872.91 2008.89 2872.91 2002.6 2872.27 1997.72 2871 1994.24 2869.73 1990.77 2867.75 1987.71 2865.06 1985.06 2862.38 1982.41 2858.95 1980.36 2854.76 1978.9L2840.42 1976.71 2829.4 1977.91C2825.35 1979.05 2821.4 1980.77 2817.56 1983.07 2814.61 1984.79 2811.77 1987.12 2809.05 1990.06 2806.06 1993.17 2803.2 1997.2 2800.48 2002.13 2799.22 2004.69 2797.91 2008.67 2796.56 2014.09 2794.82 2021.09 2793.6 2029.54 2792.92 2039.42 2792.09 2050.4 2791.44 2064.71 2790.97 2082.34L2789.45 2135.06 2789.45 2135.06 2789.45 2135.06 2770.54 2134.7 2750.95 2135.06 2750.95 2135.06 2750.95 2135.06C2752.13 2117.78 2753.06 2101.33 2753.77 2085.7L2755.85 2043.37C2756.41 2030.62 2756.69 2019.65 2756.69 2010.47 2756.69 2004.89 2756.16 2000.21 2755.1 1996.44 2754.04 1992.67 2752.09 1989.26 2749.26 1986.22 2746.43 1983.18 2742.95 1980.83 2738.81 1979.19L2725.11 1976.71 2709.8 1979.55C2704.93 1981.45 2700.44 1984.24 2696.32 1987.92 2692.21 1991.6 2688.72 1996.18 2685.84 2001.66 2682.97 2007.13 2680.71 2014.46 2679.06 2023.65 2677.4 2032.83 2676.07 2048.89 2675.07 2071.82 2674.07 2094.75 2673.56 2115.83 2673.56 2135.06L2673.56 2135.06 2673.56 2135.06 2654.32 2134.7 2634.74 2135.06 2634.74 2135.06 2634.74 2135.06 2636.67 2105.76C2637.02 2100.27 2637.49 2091.73 2638.08 2080.12L2642.27 1973.22C2642.39 1964.58 2642.44 1956.77 2642.44 1949.81L2642.44 1949.81 2642.44 1949.81 2661.22 1949.99 2679.64 1949.81 2679.64 1949.81 2679.64 1949.81 2678.04 1982.44 2682.4 1968C2685.81 1963.91 2690.3 1960.13 2695.88 1956.66 2701.46 1953.2 2707.82 1950.5 2714.96 1948.58 2722.11 1946.65 2729.43 1945.69 2736.93 1945.69ZM2252.93 1945.69 2252.93 1945.69 2252.93 1945.69C2265.65 1945.69 2277.81 1947.52 2289.4 1951.17 2300.99 1954.83 2311.1 1960.68 2319.73 1968.74 2328.35 1976.79 2334.86 1986.85 2339.25 1998.91 2343.64 2010.97 2345.84 2023.63 2345.84 2036.89 2345.84 2051.23 2343.5 2065 2338.83 2078.23 2334.15 2091.45 2327.55 2102.71 2319.02 2112.03 2310.49 2121.34 2300.08 2128.16 2287.8 2132.5 2275.51 2136.83 2262.36 2139 2248.35 2139L2248.35 2139 2248.35 2139C2235.32 2139 2223.03 2137.05 2211.46 2133.16 2199.88 2129.27 2189.81 2123.13 2181.24 2114.75 2172.66 2106.38 2166.19 2096.21 2161.82 2084.26 2157.44 2072.31 2155.26 2059.75 2155.26 2046.57 2155.26 2026.84 2159.28 2009.04 2167.33 1993.15 2175.37 1977.26 2187.22 1965.38 2202.88 1957.5 2218.53 1949.63 2235.21 1945.69 2252.93 1945.69ZM1916 1945.69 1916 1945.69 1916 1945.69C1928.72 1945.69 1940.88 1947.52 1952.47 1951.17 1964.07 1954.83 1974.17 1960.68 1982.8 1968.74 1991.42 1976.79 1997.93 1986.85 2002.32 1998.91 2006.72 2010.97 2008.91 2023.63 2008.91 2036.89 2008.91 2051.23 2006.57 2065 2001.9 2078.23 1997.22 2091.45 1990.62 2102.71 1982.09 2112.03 1973.56 2121.34 1963.15 2128.16 1950.87 2132.5 1938.58 2136.83 1925.43 2139 1911.42 2139L1911.42 2139 1911.42 2139C1898.4 2139 1886.1 2137.05 1874.53 2133.16 1862.96 2129.27 1852.88 2123.13 1844.31 2114.75 1835.73 2106.38 1829.26 2096.21 1824.89 2084.26 1820.52 2072.31 1818.33 2059.75 1818.33 2046.57 1818.33 2026.84 1822.35 2009.04 1830.4 1993.15 1838.45 1977.26 1850.3 1965.38 1865.95 1957.5 1881.6 1949.63 1898.28 1945.69 1916 1945.69ZM1784.45 1945.69 1784.45 1945.69 1784.45 1945.69C1789.66 1945.69 1795.75 1946.55 1802.72 1948.29 1802.87 1957.69 1803.32 1968.48 1804.08 1980.66L1804.08 1980.66 1804.08 1980.66 1780.76 1977.61 1763.66 1980.76C1758.59 1982.86 1754.01 1986.06 1749.92 1990.37 1745.82 1994.68 1742.25 2000.34 1739.19 2007.35 1737.41 2011.27 1735.91 2017.28 1734.69 2025.38 1733.48 2033.48 1732.51 2048.61 1731.79 2070.78 1731.38 2084.45 1731.17 2100.75 1731.17 2119.69L1731.17 2135.06 1731.17 2135.06 1731.17 2135.06 1712.12 2134.7 1692.53 2135.06 1692.53 2135.06 1692.53 2135.06C1696.72 2064.92 1698.81 2009.78 1698.81 1969.63L1698.63 1949.81 1698.63 1949.81 1698.63 1949.81 1717.05 1949.99 1735.82 1949.81 1735.82 1949.81 1735.82 1949.81 1734.39 1978.99 1739.48 1963.71C1743.07 1959.74 1747.14 1956.45 1751.7 1953.85 1756.27 1951.25 1761.35 1949.24 1766.96 1947.82 1772.57 1946.4 1778.4 1945.69 1784.45 1945.69ZM2097.1 1911.08 2097.1 1911.08 2097.1 1911.08C2096.23 1930.97 2095.75 1944.12 2095.67 1950.53L2144.7 1950.53 2144.7 1950.53C2144.07 1960.58 2143.68 1970.03 2143.52 1978.86L2143.52 1978.86 2094.57 1978.86 2089.92 2074.51 2089.81 2079.33C2089.81 2089.03 2090.64 2095.7 2092.29 2099.35 2093.95 2103 2096.36 2105.59 2099.52 2107.12L2109.84 2109.41 2118.87 2108.77C2122.02 2108.35 2129.43 2107.01 2141.11 2104.75L2141.11 2104.75 2141.11 2104.75C2139.77 2113.19 2138.18 2122.95 2136.36 2134.04 2126.67 2136.36 2119.41 2137.77 2114.58 2138.26 2109.76 2138.75 2105.11 2139 2100.65 2139L2100.65 2139 2100.65 2139C2089.64 2139 2080.66 2137.57 2073.71 2134.7 2066.76 2131.84 2061.41 2127.2 2057.65 2120.79 2053.89 2114.39 2052.02 2105.84 2052.02 2095.16 2052.02 2093.8 2052.08 2091.44 2052.2 2088.09 2052.32 2084.74 2052.92 2073.33 2053.99 2053.86L2058.3 1978.86 2034.77 1978.86 2034.77 1978.86C2035.25 1971.2 2035.71 1961.75 2036.14 1950.53L2036.14 1950.53 2060.31 1950.53C2060.71 1946.12 2061.24 1935.15 2061.89 1917.64 2074.12 1915.32 2085.85 1913.13 2097.1 1911.08ZM1593.69 1887.59 1593.69 1887.59 1593.69 1887.59C1608.93 1887.59 1620.36 1888.75 1627.98 1891.06 1635.6 1893.36 1642.38 1897.25 1648.3 1902.73 1654.23 1908.21 1658.89 1914.95 1662.27 1922.96 1665.65 1930.96 1667.34 1939.64 1667.34 1949 1667.34 1964.39 1663.38 1978.3 1655.47 1990.71 1647.55 2003.12 1636.84 2012.34 1623.32 2018.39 1609.81 2024.44 1594.77 2027.46 1578.2 2027.46L1578.2 2027.46 1578.2 2027.46C1569.51 2027.46 1559.11 2026.34 1547.01 2024.1 1544.95 2014.61 1542.79 2005.09 1540.52 1995.54L1540.52 1995.54 1540.52 1995.54 1570.82 1998.05 1593.93 1995.3C1601.2 1993.46 1607.37 1990.48 1612.43 1986.33 1617.48 1982.19 1621.43 1976.95 1624.28 1970.61 1627.12 1964.26 1628.54 1957.56 1628.54 1950.5 1628.54 1945.07 1627.53 1940.05 1625.52 1935.44 1623.51 1930.83 1620.78 1927.22 1617.34 1924.6 1613.91 1921.98 1609.86 1920.18 1605.22 1919.19 1600.57 1918.21 1593.68 1917.72 1584.54 1917.72L1569.85 1917.72 1551.38 1918.07 1551.38 1918.07 1551.38 1918.07 1541.17 1917.89 1538.3 1984.91 1535.79 2057.34C1535.01 2083.02 1534.62 2101.11 1534.62 2111.6L1534.62 2135.06 1534.62 2135.06 1534.62 2135.06 1514.36 2134.7 1494 2135.06 1494 2135.06 1494 2135.06 1497 2091.21 1502.62 1953.89 1503.32 1924.52C1503.44 1919.8 1503.5 1915.19 1503.5 1910.69L1503.5 1887.95 1503.5 1887.95 1503.5 1887.95 1542.82 1888.3 1570.77 1887.95C1582.14 1887.71 1589.78 1887.59 1593.69 1887.59ZM2562.28 1886.52 2562.28 1886.52 2562.28 1886.52 2582.94 1886.87 2603.6 1886.52 2603.6 1886.52 2603.6 1886.52C2603.32 1892.84 2602.9 1903.54 2602.36 1918.61L2602.36 1918.61 2602.36 1918.61 2582.41 1918.43 2561.75 1918.61 2561.75 1918.61 2561.75 1918.61C2562.11 1905.16 2562.28 1894.46 2562.28 1886.52ZM2458.53 1884 2458.53 1884 2458.53 1884C2471.59 1884 2488.83 1885.95 2510.24 1889.85 2510.53 1898.99 2511.4 1910.43 2512.86 1924.17L2512.86 1924.17 2512.86 1924.17C2502.36 1921 2492.71 1918.62 2483.91 1917.04L2460.08 1914.66 2436.47 1919.26C2430.2 1922.33 2425.5 1926.17 2422.36 1930.8 2419.23 1935.43 2417.66 1940.14 2417.66 1944.93 2417.66 1947.93 2418.08 1950.81 2418.91 1953.57 2419.75 1956.33 2420.99 1958.95 2422.65 1961.43 2425.25 1965.38 2428.52 1969.41 2432.47 1973.53 2436.42 1977.65 2442.04 1982.8 2449.32 1988.98 2451.47 1991 2458.22 1996.6 2469.57 2005.78 2480.92 2014.97 2489.28 2022.21 2494.65 2027.51 2500.01 2032.81 2504.37 2037.84 2507.73 2042.62 2511.08 2047.4 2513.71 2052.58 2515.6 2058.18 2517.48 2063.77 2518.43 2069.76 2518.43 2076.14 2518.43 2086.03 2516.26 2095.21 2511.92 2103.7 2507.58 2112.18 2501.4 2119.1 2493.38 2124.44 2485.36 2129.78 2476.55 2133.54 2466.95 2135.72 2457.36 2137.91 2447.32 2139 2436.84 2139L2436.84 2139 2436.84 2139C2428.36 2139 2419.82 2138.38 2411.2 2137.15 2402.59 2135.92 2389.32 2132.86 2371.38 2127.98 2370.85 2115.48 2370.05 2103.74 2368.98 2092.73L2368.98 2092.73 2368.98 2092.73C2384.57 2098.69 2397.21 2102.84 2406.9 2105.18L2434.76 2108.69 2457.84 2104.54C2464.84 2101.77 2470.04 2097.94 2473.45 2093.07 2476.85 2088.2 2478.55 2082.61 2478.55 2076.32 2478.55 2072.72 2477.97 2069.31 2476.8 2066.06 2475.63 2062.82 2473.68 2059.46 2470.97 2055.98 2468.26 2052.49 2463.43 2047.69 2456.5 2041.58 2449.57 2035.46 2439.54 2026.85 2426.41 2015.74L2413.37 2004.66C2408.19 2000.23 2403.61 1995.93 2399.62 1991.77 2395.63 1987.62 2392.22 1983.54 2389.39 1979.54 2386.56 1975.55 2384.35 1971.87 2382.76 1968.51 2381.17 1965.15 2379.95 1961.47 2379.08 1957.45 2378.22 1953.43 2377.78 1949.26 2377.78 1944.93 2377.78 1934.15 2380.72 1924.08 2386.59 1914.72 2392.47 1905.36 2401.25 1897.9 2412.94 1892.34 2424.63 1886.78 2439.83 1884 2458.53 1884Z" fill="#022C58" fill-rule="evenodd"/></g></svg>